<svg width="50" height="50" viewBox="0 0 50 50" fill="none" xmlns="http://www.w3.org/2000/svg">
<path d="M39.4607 16.5791L40.1708 16.169C38.7712 13.999 36.9218 12.1496 34.7518 10.7499L34.3417 11.4601C34.1818 11.7352 33.8938 11.89 33.5963 11.89C33.451 11.89 33.3031 11.853 33.1673 11.7748C32.7563 11.5375 32.6153 11.0113 32.8526 10.6003L33.2644 9.88759C31.0265 8.72947 28.5186 8.03653 25.8602 7.91016V8.72603C25.8602 9.20147 25.475 9.58578 25.0005 9.58578C24.5258 9.58578 24.1407 9.20147 24.1407 8.72603V7.91016L22.214 8.22909C20.6372 8.49047 19.0948 8.92641 17.6143 9.52909L16.7356 9.88672L17.1475 10.5995C17.3847 11.0113 17.2437 11.5366 16.8328 11.7739C16.6969 11.8522 16.549 11.8891 16.4038 11.8891C16.1063 11.8891 15.8174 11.7343 15.6583 11.4592L15.2482 10.749C13.0773 12.1487 11.2289 13.9981 9.82921 16.1681L10.5393 16.5782C10.9503 16.8155 11.0913 17.3417 10.854 17.7527C10.6941 18.0278 10.4061 18.1825 10.1086 18.1825C9.96334 18.1825 9.8154 18.1455 9.67959 18.0673L8.96684 17.6555C7.80878 19.8934 7.11578 22.4022 6.9894 25.0597H7.80534C8.2799 25.0597 8.66509 25.444 8.66509 25.9195C8.66509 26.3949 8.2799 26.7792 7.80534 26.7792H6.98853C7.11496 29.4376 7.8079 31.9464 8.96596 34.1835L9.67871 33.7716C10.0905 33.5326 10.615 33.6762 10.8532 34.0863C11.0905 34.4981 10.9495 35.0234 10.5385 35.2607L9.82834 35.6709C11.228 37.8409 13.0773 39.6902 15.2474 41.0899L15.6575 40.3797C15.8948 39.9687 16.4183 39.8269 16.8319 40.065C17.2428 40.3024 17.3838 40.8285 17.1466 41.2395L16.7348 41.9522C18.9727 43.1103 21.4806 43.8033 24.139 43.9297V43.1137C24.139 42.6383 24.5242 42.254 24.9987 42.254C25.4733 42.254 25.8585 42.6383 25.8585 43.1137V43.9297C28.5168 43.8041 31.0248 43.1103 33.2627 41.9522L32.8509 41.2395C32.6136 40.8277 32.7546 40.3024 33.1656 40.065C33.5774 39.8277 34.1018 39.9696 34.34 40.3797L34.7501 41.0899C36.921 39.6902 38.7695 37.8409 40.1692 35.6709L39.459 35.2607C39.048 35.0234 38.907 34.4973 39.1443 34.0863C39.3816 33.6754 39.906 33.5317 40.3187 33.7716L41.0315 34.1835C42.1896 31.9455 42.8825 29.4367 43.0089 26.7792H42.193C41.7184 26.7792 41.3332 26.3949 41.3332 25.9195C41.3332 25.444 41.7184 25.0597 42.193 25.0597H43.0089C42.8825 22.4013 42.1896 19.8926 41.0315 17.6555L40.3187 18.0673C40.1829 18.1455 40.035 18.1825 39.8897 18.1825C39.5922 18.1825 39.3033 18.0278 39.1443 17.7527C38.9087 17.3425 39.0497 16.8163 39.4607 16.5791ZM34.4569 26.781H28.3165C27.9322 28.2597 26.597 29.3602 24.9996 29.3602C23.103 29.3602 21.5606 27.8178 21.5606 25.9212C21.5606 24.3229 22.661 22.9885 24.1398 22.6042V13.8846C24.1398 13.4092 24.525 13.0248 24.9996 13.0248C25.4742 13.0248 25.8593 13.4092 25.8593 13.8846V22.6042C27.0622 22.9172 28.0036 23.8587 28.3165 25.0614H34.4569C34.9315 25.0614 35.3167 25.4457 35.3167 25.9212C35.3167 26.3967 34.9315 26.781 34.4569 26.781Z" fill="#ADADAD"/>
<path d="M25.0012 27.646C25.9509 27.646 26.7207 26.8762 26.7207 25.9265C26.7207 24.9768 25.9509 24.207 25.0012 24.207C24.0515 24.207 23.2817 24.9768 23.2817 25.9265C23.2817 26.8762 24.0515 27.646 25.0012 27.646Z" fill="#ADADAD"/>
<path d="M43.1504 8.39725L46.6719 11.9188C46.8336 12.0804 47.0519 12.1707 47.2797 12.1707C47.5076 12.1707 47.7268 12.0804 47.8876 11.9188C50.6104 9.19681 50.6104 4.76649 47.8876 2.0445C46.5696 0.726494 44.8157 0 42.9509 0C41.0861 0 39.3331 0.726494 38.0142 2.0445C37.8526 2.20614 37.7622 2.42366 37.7622 2.65235C37.7622 2.88104 37.8526 3.09943 38.0142 3.2602L41.9355 7.18156L40.4748 8.64225C36.3651 4.95908 30.9409 2.71339 25.0009 2.71339C19.0608 2.71339 13.6357 4.95908 9.52612 8.64225L8.06543 7.18156L11.9867 3.2602C12.1484 3.09856 12.2387 2.88104 12.2387 2.65235C12.2387 2.42366 12.1484 2.20528 11.9867 2.0445C10.6679 0.726494 8.91487 0 7.05006 0C5.18436 0 3.43132 0.726494 2.11245 2.0445C-0.610399 4.76649 -0.610399 9.19681 2.11245 11.9188C2.27409 12.0804 2.49246 12.1707 2.7203 12.1707C2.94814 12.1707 3.16737 12.0804 3.32815 11.9188L6.84968 8.39725L8.29068 9.83819C4.26786 14.0141 1.7866 19.685 1.7866 25.9268C1.7866 34.4367 6.39231 41.8873 13.2394 45.9291L10.6361 48.5324C10.2999 48.8686 10.2999 49.4119 10.6361 49.7481C10.8037 49.9158 11.0238 50 11.2439 50C11.464 50 11.6841 49.9158 11.8517 49.7481L14.8179 46.7819C17.8941 48.2899 21.3495 49.1403 25 49.1403C28.6506 49.1403 32.1059 48.2899 35.1821 46.7819L38.1483 49.7481C38.3159 49.9158 38.5361 50 38.7561 50C38.9762 50 39.1963 49.9158 39.364 49.7481C39.7001 49.4119 39.7001 48.8686 39.364 48.5324L36.7606 45.9291C43.6077 41.8873 48.2134 34.4367 48.2134 25.9268C48.2134 19.685 45.7322 14.0141 41.7094 9.83819L43.1504 8.39725ZM42.0929 16.0035C42.1023 16.0172 42.1169 16.0259 42.1255 16.0405C42.1341 16.0551 42.1341 16.0723 42.141 16.0877C43.8124 18.9886 44.7744 22.3468 44.7744 25.9277C44.7744 29.5086 43.8124 32.8676 42.141 35.7676C42.1332 35.7831 42.1341 35.7994 42.1255 35.8149C42.1135 35.8364 42.0954 35.8519 42.0817 35.8716C40.3536 38.8274 37.8826 41.2958 34.9242 43.0205C34.9104 43.0299 34.9019 43.0446 34.8872 43.0532C34.8649 43.0661 34.8408 43.0713 34.8184 43.0816C31.9228 44.7452 28.5723 45.7021 25 45.7021C21.4277 45.7021 18.0772 44.7452 15.1816 43.0816C15.1592 43.0713 15.1352 43.0661 15.1128 43.0532C15.0982 43.0446 15.0905 43.0299 15.0759 43.0205C12.1174 41.2958 9.6465 38.8283 7.91837 35.8716C7.90462 35.8519 7.88656 35.8364 7.87456 35.8149C7.86593 35.8003 7.86593 35.7831 7.85906 35.7676C6.1877 32.8667 5.22563 29.5086 5.22563 25.9277C5.22563 22.3468 6.1877 18.9877 7.85906 16.0877C7.86681 16.0723 7.86593 16.0559 7.87456 16.0405C7.88312 16.0259 7.89775 16.0181 7.90718 16.0035C9.63531 13.0382 12.1114 10.563 15.0759 8.83487C15.0896 8.82537 15.0982 8.81081 15.1128 8.80219C15.1283 8.79356 15.1446 8.79356 15.1601 8.78588C18.0601 7.1145 21.4191 6.15242 25 6.15242C28.5809 6.15242 31.94 7.11363 34.8399 8.78588C34.8554 8.79356 34.8717 8.79356 34.8872 8.80219C34.9019 8.81081 34.9096 8.82537 34.9242 8.83487C37.8895 10.5621 40.3647 13.0382 42.0929 16.0035Z" fill="#ADADAD"/>
</svg>
